<svg
    xmlns="http://www.w3.org/2000/svg" width="923.3" height="658" viewBox="0 0 700 642.7" version="1.0" clip-rule="evenodd" style="font-family: sans-serif; font-size: 14px">

    <path d="M210 382l60 21 41-52 42 23 89-8 11 32 41 45-26 44-125 1-63 46-27-16-29-57-40-10 11-55z" fill="none" stroke="#000"/>
    <text x="300" y="440">Andalucía</text>

    <path d="M606 82l-74-17-29 34 2 25-4 9-22-5-15 56 27 16-8 35 30 32 21 3 30-61 19 2z" fill="none" stroke="#000"/>
    <text x="510" y="160">Aragón</text>

    <path d="M733 258l-36 28 39 17 20-32zM772 249l17-4 10 15-2 2-16-7-7 1zM656 319l6 5-11 15-10-9z" fill="none" stroke="#000"/>
    <text x="690" y="320">Baleares</text>

    <path d="M347 33l-65-19-58 4-6 12 15 33 97-13z" fill="none" stroke="#000"/>
    <text x="250" y="40">Asturias</text>

    <path transform="matrix(-.9711 0 0 1.0272 579 -16)" fill="none" stroke="#000" stroke-width=".6" stroke-linecap="square" stroke-linejoin="bevel" d="M700 485H458l-80 47v109"/>
    <path d="M-14 594l22-3 13-10 10-1 2 3-15 11-6 18-13 7zM61 608l-12 14 8 12 20-6-2-13zM157 571l-12 35-16 8 11 3 7-8 14-5 4-7 3-24-3-5zM189 533l-4 10-16 6-4 10 6 4 18-13 4-12zM-79 565l6-5 8 1 3 7-7 19zM291 539l2 3h3l-3 2-2-1zM-35 604l-5 5 6 8 8-6zM-76 628l-6 6-5-1-2 3 10 6 6-11z" fill="none" stroke="#000"/>
    <text x="5" y="560">Canarias</text>

    <path d="M414 37l-21-11-44 7-19 17 45 26-2-14z" fill="none" stroke="#000"/>
    <text x="340" y="50">Cantabria</text>

    <path d="M339 249l-38 7 9 45 22 8-21 42 42 23 89-8 11 32 75-49-31-54 16-28-30-32 8-35-27-16-37-9-34 9 4 27 21 49z" fill="none" stroke="#000"/>
    <text x="340" y="300">Castilla - La Mancha</text>

    <path d="M259 153c-1-1-36 42-36 42l3 41 28-7 45 16 2 11 38-7 54-65 33-10 38 10 13-50-61-13V85l20 7-32-48-32 18 4 14-46-27-98 14-12 63z" fill="none" stroke="#000"/>
    <text x="281" y="140">Castilla y León</text>

    <path d="M601 67l134 28-4 30-130 99-18-13 23-129z" fill="none" stroke="#000"/>
    <text x="610" y="150">Cataluña</text>

    <path d="M291 539l2 3h3l-3 2-2-1z" fill="none" stroke="#000"/>
    <text x="300" y="540">Ceuta</text>

    <path d="M538 410l16-35 36-28-30-47 41-76-18-13-19-2-30 61-21-3-16 28 32 55-7 26z" fill="none" stroke="#000"/>
    <text x="520" y="300">Comunidad</text>
    <text x="520" y="320">Valenciana</text>

    <path d="M254 229l45 17 11 55 22 8-22 42-40 52-60-21-17-20 20-38-27-42h27l8-39z" fill="none" stroke="#000"/>
    <text x="220" y="320">Extremadura</text>

    <path d="M223 18c-3-3-40-17-40-17l-70 43 13 82h94l12-63-14-34z" fill="none" stroke="#000"/>
    <text x="150" y="70">Galicia</text>

    <path d="M393 184l-54 66 79 10-21-49z" fill="none" stroke="#000"/>
    <text x="357" y="240">Madrid</text>

    <path d="M424 582l1 2v2l-3-1z" fill="none" stroke="#000"/>
    <text x="380" y="580">Melilla</text>

    <path d="M542 417l-20-41 7-26-76 48 40 45 51-19-3-8h0" fill="none" stroke="#000"/>
    <text x="480" y="410">Murcia</text>

    <path d="M483 38l-35 57 39 21-8 12 22 5 4-10-2-24 29-34z" fill="none" stroke="#000"/>
    <text x="470" y="70">Navarra</text>

    <path d="M483 38l-28 3-22-11-18 7-11 7 33 49 12 1z" fill="none" stroke="#000"/>
    <text x="420" y="50">País </text>
    <text x="420" y="70">Vasco</text>

    <path d="M487 115l-38-21-13-1-20-8 1 36 60 13z" fill="none" stroke="#000"/>
    <text x="420" y="117">La Rioja</text>
</svg>