<svg
    xmlns="http://www.w3.org/2000/svg" xml:space="preserve" width="923.321" height="658.044" viewBox="0 0 700 642.727" id="svg2" version="1.0" shape-rendering="geometricPrecision" text-rendering="geometricPrecision" image-rendering="optimizeQuality" fill-rule="evenodd" clip-rule="evenodd">
    <defs id="defs4">
        <style type="text/css" id="style6">.str0{stroke:#000;stroke-width:.561273;stroke-linecap:square;stroke-linejoin:bevel}</style>
        <style id="style1405" type="text/css">.str0{stroke:#000;stroke-width:.561273;stroke-linecap:square;stroke-linejoin:bevel}</style>
    </defs>
    <path id="_128750616" class="str0" transform="matrix(.98728 0 0 1 109.166 -1.237)" fill="#bcdae8" stroke="#000" stroke-width=".565" stroke-linecap="square" stroke-linejoin="bevel" d="M185.048 545.057v-.405h-.808v-.404h-.404v-2.424h.808v.404h.404l.404.404v.404h.404v.404h.808l.404-.404.404.404h-.808.404v.404h.808v-.404h.404v-.404h1.213v.404h-.405v.404h-.808l-.404.404h-.404v-.404h-.404v.404h-.404v.404h-.808v.405h-.404z"/>
    <path id="_129003024" class="str0" transform="matrix(.98728 0 0 1 109.166 -1.237)" fill="#e7bbbb" stroke="#000" stroke-width=".565" stroke-linecap="square" stroke-linejoin="bevel" d="M318.799 583.852v.808h.404v.404h.404v.405h.404-.808v.808l.404.404v.404H318.395l-.404-.404h-.404V584.256l.404-.404v-.404h.404v.404z"/>
    <text xml:space="preserve" style="line-height:0%" x="626.013" y="149.138" id="text1329" transform="scale(.99362 1.00642)" font-style="normal" font-weight="400" font-size="11.923" font-family="Bitstream Vera Sans" fill="#000" fill-opacity="1" fill-rule="evenodd" stroke="none" stroke-width=".994" stroke-linecap="butt" stroke-linejoin="miter" stroke-opacity="1">
        <tspan id="tspan1331" x="626.013" y="149.138" style="line-height:125%;text-align:start" font-style="normal" font-variant="normal" font-weight="700" font-stretch="normal" font-size="13.911" font-family="Arial" writing-mode="lr-tb" text-anchor="start" stroke-width=".994">Cataluña</tspan>
    </text>
    <text xml:space="preserve" style="line-height:0%" x="521.282" y="296.413" id="text1333" transform="scale(.99362 1.00642)" font-style="normal" font-weight="400" font-size="11.923" font-family="Bitstream Vera Sans" fill="#000" fill-opacity="1" fill-rule="evenodd" stroke="none" stroke-width=".994" stroke-linecap="butt" stroke-linejoin="miter" stroke-opacity="1">
        <tspan id="tspan1335" x="521.282" y="296.413" style="line-height:125%;text-align:start" font-style="normal" font-variant="normal" font-weight="700" font-stretch="normal" font-size="13.911" font-family="Arial" writing-mode="lr-tb" text-anchor="start" stroke-width=".994">Comunidad</tspan>
        <tspan x="521.282" y="313.801" style="line-height:125%;text-align:start" id="tspan1385" font-style="normal" font-variant="normal" font-weight="700" font-stretch="normal" font-size="13.911" font-family="Arial" writing-mode="lr-tb" text-anchor="start" stroke-width=".994">Valenciana</tspan>
    </text>
    <text xml:space="preserve" style="line-height:0%" x="690.273" y="318.928" id="text1337" transform="scale(.99362 1.00642)" font-style="normal" font-weight="400" font-size="11.923" font-family="Bitstream Vera Sans" fill="#000" fill-opacity="1" fill-rule="evenodd" stroke="none" stroke-width=".994" stroke-linecap="butt" stroke-linejoin="miter" stroke-opacity="1">
        <tspan id="tspan1339" x="690.273" y="318.928" style="line-height:125%;text-align:start" font-style="normal" font-variant="normal" font-weight="700" font-stretch="normal" font-size="13.911" font-family="Arial" writing-mode="lr-tb" text-anchor="start" stroke-width=".994">Islas Baleares</tspan>
    </text>
    <text xml:space="preserve" style="line-height:0%" x="357.082" y="301.588" id="text1341" transform="scale(.99362 1.00642)" font-style="normal" font-weight="400" font-size="11.923" font-family="Bitstream Vera Sans" fill="#000" fill-opacity="1" fill-rule="evenodd" stroke="none" stroke-width=".994" stroke-linecap="butt" stroke-linejoin="miter" stroke-opacity="1">
        <tspan x="357.082" y="301.588" style="line-height:125%;text-align:start" id="tspan1387" font-style="normal" font-variant="normal" font-weight="700" font-stretch="normal" font-size="13.911" font-family="Arial" writing-mode="lr-tb" text-anchor="start" stroke-width=".994">Castilla - La Mancha</tspan>
    </text>
    <text xml:space="preserve" style="line-height:0%" x="507.724" y="164.424" id="text1345" transform="scale(.99362 1.00642)" font-style="normal" font-weight="400" font-size="11.923" font-family="Bitstream Vera Sans" fill="#000" fill-opacity="1" fill-rule="evenodd" stroke="none" stroke-width=".994" stroke-linecap="butt" stroke-linejoin="miter" stroke-opacity="1">
        <tspan id="tspan1347" x="507.724" y="164.424" style="line-height:125%;text-align:start" font-style="normal" font-variant="normal" font-weight="700" font-stretch="normal" font-size="13.911" font-family="Arial" writing-mode="lr-tb" text-anchor="start" stroke-width=".994">Aragón</tspan>
    </text>
    <text xml:space="preserve" style="line-height:0%" x="472.662" y="74.459" id="text1349" transform="scale(.99362 1.00642)" font-style="normal" font-weight="400" font-size="11.923" font-family="Bitstream Vera Sans" fill="#000" fill-opacity="1" fill-rule="evenodd" stroke="none" stroke-width=".994" stroke-linecap="butt" stroke-linejoin="miter" stroke-opacity="1">
        <tspan id="tspan1351" x="472.662" y="74.459" style="line-height:125%;text-align:start" font-style="normal" font-variant="normal" font-weight="700" font-stretch="normal" font-size="13.911" font-family="Arial" writing-mode="lr-tb" text-anchor="start" stroke-width=".994">Navarra</tspan>
    </text>
    <text xml:space="preserve" style="line-height:0%" x="420.839" y="114.338" id="text1353" transform="scale(.99362 1.00642)" font-style="normal" font-weight="400" font-size="11.923" font-family="Bitstream Vera Sans" fill="#000" fill-opacity="1" fill-rule="evenodd" stroke="none" stroke-width=".994" stroke-linecap="butt" stroke-linejoin="miter" stroke-opacity="1">
        <tspan id="tspan1355" x="420.839" y="114.338" style="line-height:125%;text-align:start" font-style="normal" font-variant="normal" font-weight="700" font-stretch="normal" font-size="13.911" font-family="Arial" writing-mode="lr-tb" text-anchor="start" stroke-width=".994">La Rioja</tspan>
    </text>
    <text xml:space="preserve" style="line-height:0%;text-align:center" x="445.225" y="51.947" id="text1357" transform="scale(.99362 1.00642)" font-style="normal" font-weight="400" font-size="11.923" font-family="Bitstream Vera Sans" writing-mode="lr-tb" text-anchor="middle" fill="#000" fill-opacity="1" fill-rule="evenodd" stroke="none" stroke-width=".994" stroke-linecap="butt" stroke-linejoin="miter" stroke-opacity="1">
        <tspan id="tspan1359" x="447.154" y="51.947" style="line-height:125%;text-align:center" font-style="normal" font-variant="normal" font-weight="700" font-stretch="normal" font-size="13.911" font-family="Arial" writing-mode="lr-tb" text-anchor="middle" stroke-width=".994">País </tspan>
        <tspan x="445.225" y="69.336" style="line-height:125%;text-align:center" id="tspan1391" font-style="normal" font-variant="normal" font-weight="700" font-stretch="normal" font-size="13.911" font-family="Arial" writing-mode="lr-tb" text-anchor="middle" stroke-width=".994">Vasco</tspan>
    </text>
    <text xml:space="preserve" style="line-height:0%" x="338.762" y="47.515" id="text1361" transform="scale(.99362 1.00642)" font-style="normal" font-weight="400" font-size="11.923" font-family="Bitstream Vera Sans" fill="#000" fill-opacity="1" fill-rule="evenodd" stroke="none" stroke-width=".994" stroke-linecap="butt" stroke-linejoin="miter" stroke-opacity="1">
        <tspan id="tspan1363" x="338.762" y="47.515" style="line-height:125%;text-align:start" font-style="normal" font-variant="normal" font-weight="700" font-stretch="normal" font-size="13.911" font-family="Arial" writing-mode="lr-tb" text-anchor="start" stroke-width=".994">Cantabria</tspan>
    </text>
    <text xml:space="preserve" style="line-height:0%" x="280.968" y="141.431" id="text1365" transform="scale(.99362 1.00642)" font-style="normal" font-weight="400" font-size="11.923" font-family="Bitstream Vera Sans" fill="#000" fill-opacity="1" fill-rule="evenodd" stroke="none" stroke-width=".994" stroke-linecap="butt" stroke-linejoin="miter" stroke-opacity="1">
        <tspan id="tspan1367" x="280.968" y="141.431" style="line-height:125%;text-align:start" font-style="normal" font-variant="normal" font-weight="700" font-stretch="normal" font-size="13.911" font-family="Arial" writing-mode="lr-tb" text-anchor="start" stroke-width=".994">Castilla y León</tspan>
    </text>
    <text xml:space="preserve" style="line-height:0%" x="220.078" y="317.116" id="text1369" transform="scale(.99362 1.00642)" font-style="normal" font-weight="400" font-size="11.923" font-family="Bitstream Vera Sans" fill="#000" fill-opacity="1" fill-rule="evenodd" stroke="none" stroke-width=".994" stroke-linecap="butt" stroke-linejoin="miter" stroke-opacity="1">
        <tspan id="tspan1371" x="220.078" y="317.116" style="line-height:125%;text-align:start" font-style="normal" font-variant="normal" font-weight="700" font-stretch="normal" font-size="13.911" font-family="Arial" writing-mode="lr-tb" text-anchor="start" stroke-width=".994">Extremadura</tspan>
    </text>
    <text xml:space="preserve" style="line-height:0%" x="152.454" y="70.841" id="text1373" transform="scale(.99362 1.00642)" font-style="normal" font-weight="400" font-size="11.923" font-family="Bitstream Vera Sans" fill="#000" fill-opacity="1" fill-rule="evenodd" stroke="none" stroke-width=".994" stroke-linecap="butt" stroke-linejoin="miter" stroke-opacity="1">
        <tspan id="tspan1375" x="152.454" y="70.841" style="line-height:125%;text-align:start" font-style="normal" font-variant="normal" font-weight="700" font-stretch="normal" font-size="13.911" font-family="Arial" writing-mode="lr-tb" text-anchor="start" stroke-width=".994">Galicia</tspan>
    </text>
    <text xml:space="preserve" style="line-height:0%;text-align:center" x="272.178" y="41.605" id="text1377" transform="scale(.99362 1.00642)" font-style="normal" font-weight="400" font-size="11.923" font-family="Bitstream Vera Sans" writing-mode="lr-tb" text-anchor="middle" fill="#000" fill-opacity="1" fill-rule="evenodd" stroke="none" stroke-width=".994" stroke-linecap="butt" stroke-linejoin="miter" stroke-opacity="1">
        <tspan x="272.178" y="41.605" style="line-height:125%;text-align:center" id="tspan1398" font-style="normal" font-variant="normal" font-weight="700" font-stretch="normal" font-size="13.911" font-family="Arial" writing-mode="lr-tb" text-anchor="middle" stroke-width=".994">Asturias</tspan>
    </text>
    <text xml:space="preserve" style="line-height:0%" x="504.613" y="406.918" id="text1381" transform="scale(.99362 1.00642)" font-style="normal" font-weight="400" font-size="11.923" font-family="Bitstream Vera Sans" fill="#000" fill-opacity="1" fill-rule="evenodd" stroke="none" stroke-width=".994" stroke-linecap="butt" stroke-linejoin="miter" stroke-opacity="1">
        <tspan x="504.613" y="406.918" style="line-height:125%;text-align:center" id="tspan1424" font-style="normal" font-variant="normal" font-weight="700" font-stretch="normal" font-size="13.911" font-family="Arial" writing-mode="lr-tb" text-anchor="middle" stroke-width=".994">Murcia</tspan>
    </text>
    <text xml:space="preserve" style="line-height:0%" x="3.685" y="558.49" id="text1393" transform="scale(.99362 1.00642)" font-style="normal" font-weight="400" font-size="11.923" font-family="Bitstream Vera Sans" fill="#000" fill-opacity="1" fill-rule="evenodd" stroke="none" stroke-width=".994" stroke-linecap="butt" stroke-linejoin="miter" stroke-opacity="1">
        <tspan id="tspan1395" x="3.685" y="558.49" style="line-height:125%;text-align:start" font-style="normal" font-variant="normal" font-weight="700" font-stretch="normal" font-size="13.911" font-family="Arial" writing-mode="lr-tb" text-anchor="start" stroke-width=".994">Islas Canarias</tspan>
    </text>
    <path id="_127611872" class="str0" transform="matrix(-.9711 0 0 1.0272 578.767 -15.56)" fill="none" stroke="#000" stroke-width=".562" stroke-linecap="square" stroke-linejoin="bevel" d="M699.618 485.323H458.483l-80.416 46.429v109.459"/>
    <text xml:space="preserve" style="line-height:0%" x="298.844" y="438.448" id="text1397" transform="scale(.99362 1.00642)" font-style="normal" font-weight="400" font-size="11.923" font-family="Bitstream Vera Sans" fill="#000" fill-opacity="1" fill-rule="evenodd" stroke="none" stroke-width=".994" stroke-linecap="butt" stroke-linejoin="miter" stroke-opacity="1">
        <tspan id="tspan1399" x="298.844" y="438.448" style="line-height:125%;text-align:start" font-style="normal" font-variant="normal" font-weight="700" font-stretch="normal" font-size="13.911" font-family="Arial" writing-mode="lr-tb" text-anchor="start" stroke-width=".994">Andalucía</tspan>
    </text>
    <text xml:space="preserve" style="line-height:0%;text-align:center" x="384.065" y="240.552" id="text1401" transform="scale(.99362 1.00642)" font-style="normal" font-weight="400" font-size="11.923" font-family="Bitstream Vera Sans" writing-mode="lr-tb" text-anchor="middle" fill="#000" fill-opacity="1" fill-rule="evenodd" stroke="none" stroke-width=".994" stroke-linecap="butt" stroke-linejoin="miter" stroke-opacity="1">
        <tspan x="384.065" y="240.552" style="line-height:125%;text-align:center" id="tspan1402" font-style="normal" font-variant="normal" font-weight="700" font-stretch="normal" font-size="13.911" font-family="Arial" writing-mode="lr-tb" text-anchor="middle" stroke-width=".994">Madrid</tspan>
    </text>
    <text xml:space="preserve" style="line-height:0%" x="303.365" y="527.724" id="text2296" transform="scale(.99362 1.00642)" font-style="normal" font-weight="400" font-size="11.923" font-family="Bitstream Vera Sans" fill="#000" fill-opacity="1" fill-rule="evenodd" stroke="none" stroke-width=".994" stroke-linecap="butt" stroke-linejoin="miter" stroke-opacity="1"/>
    <text xml:space="preserve" style="line-height:0%" x="303.329" y="541.604" id="text2300" transform="scale(.99362 1.00642)" font-style="normal" font-weight="400" font-size="11.923" font-family="Bitstream Vera Sans" fill="#000" fill-opacity="1" fill-rule="evenodd" stroke="none" stroke-width=".994" stroke-linecap="butt" stroke-linejoin="miter" stroke-opacity="1">
        <tspan id="tspan2302" x="303.329" y="541.604" style="line-height:125%;text-align:start" font-style="normal" font-variant="normal" font-weight="700" font-stretch="normal" font-size="13.911" font-family="Arial" writing-mode="lr-tb" text-anchor="start" stroke-width=".994">Ceuta</tspan>
    </text>
    <text xml:space="preserve" style="line-height:0%" x="376.351" y="583.088" id="text2304" transform="scale(.99362 1.00642)" font-style="normal" font-weight="400" font-size="11.923" font-family="Bitstream Vera Sans" fill="#000" fill-opacity="1" fill-rule="evenodd" stroke="none" stroke-width=".994" stroke-linecap="butt" stroke-linejoin="miter" stroke-opacity="1">
        <tspan id="tspan2306" x="376.351" y="583.088" style="line-height:125%;text-align:start" font-style="normal" font-variant="normal" font-weight="700" font-stretch="normal" font-size="13.911" font-family="Arial" writing-mode="lr-tb" text-anchor="start" stroke-width=".994">Melilla</tspan>
    </text>
    <text xml:space="preserve" style="line-height:0%" x="363.002" y="567.143" id="text2314" transform="scale(.99362 1.00642)" font-style="normal" font-weight="400" font-size="11.923" font-family="Bitstream Vera Sans" fill="#000" fill-opacity="1" fill-rule="evenodd" stroke="none" stroke-width=".994" stroke-linecap="butt" stroke-linejoin="miter" stroke-opacity="1"/>
    <path d="M210.077 382.172l59.591 20.409 41.341-51.93 42.287 23.035 88.965-7.679 10.372 32.33 41.49 44.453-26.33 44.05-124.47 1.212-63.432 45.665-26.728-16.165-28.724-56.172-40.293-10.103 10.372-54.96z" id="path4598" fill="none" stroke="#000" stroke-width=".977" stroke-linecap="butt" stroke-linejoin="miter" stroke-opacity="1"/>
    <path d="M254.36 228.607l44.68 16.973 10.975 55.028 21.739 8.823-21.543 42.028-40.543 51.122-59.99-20.813-16.756-20.206 20.347-37.179-27.528-42.028 27.128-.809 7.98-38.795z" id="path4600" fill="none" stroke="#000" stroke-width=".977" stroke-linecap="butt" stroke-linejoin="miter" stroke-opacity="1"/>
    <path d="M393.345 183.734l-54.809 65.887 79.843 10.236-21.597-48.626z" id="path4602" fill="none" stroke="#000" stroke-width=".977" stroke-linecap="butt" stroke-linejoin="miter" stroke-opacity="1"/>
    <path d="M338.934 249.217c-1.995 0-37.898 6.466-37.898 6.466l8.979 44.925 21.739 8.823-20.745 41.22 42.287 23.035 88.965-7.679 10.372 32.33 75.798-48.898-31.117-54.556 15.957-27.48-29.92-32.33 7.58-35.158-27.128-15.76-36.703-8.891-33.755 8.47 3.437 27.496 21.597 48.627z" id="path4604" fill="none" stroke="#000" stroke-width=".977" stroke-linecap="butt" stroke-linejoin="miter" stroke-opacity="1"/>
    <path d="M541.995 416.927L521.65 376.11l7.18-26.267-76.197 48.494 40.692 44.453 50.665-18.59-2.792-8.082h-.4" id="path4610" fill="none" stroke="#000" stroke-width=".977" stroke-linecap="butt" stroke-linejoin="miter" stroke-opacity="1"/>
    <path d="M538.006 409.652l15.958-34.35 36.303-27.884-30.718-47.686 41.49-75.57-17.554-13.336-19.548-1.617-30.32 61.023-20.345-2.829-15.958 27.48 31.516 54.96-7.18 26.267z" id="path4612" fill="none" stroke="#000" stroke-width=".977" stroke-linecap="butt" stroke-linejoin="miter" stroke-opacity="1"/>
    <path d="M222.843 18.466c-3.191-3.637-39.495-16.973-39.495-16.973L112.735 44.33l13.166 81.227 94.15.809 12.366-63.851-14.76-33.138z" id="path4614" fill="none" stroke="#000" stroke-width=".977" stroke-linecap="butt" stroke-linejoin="miter" stroke-opacity="1"/>
    <path d="M346.515 33.418l-64.23-18.994-58.245 3.638-5.984 11.72 14.76 32.733 96.943-12.932z" id="path4616" fill="none" stroke="#000" stroke-width=".977" stroke-linecap="butt" stroke-linejoin="miter" stroke-opacity="1"/>
    <path d="M414.335 36.651l-21.144-10.507-44.682 6.87-18.75 16.569 44.68 26.267c-.398-4.984-2.324-14.548-2.292-14.22z" id="path4618" fill="none" stroke="#000" stroke-width=".977" stroke-linecap="butt" stroke-linejoin="miter" stroke-opacity="1"/>
    <path d="M482.554 37.863l-27.25 2.768-22.618-10.85-17.553 6.87-11.277 7.116 32.82 49.057 12.366 1.212z" id="path4620" fill="none" stroke="#000" stroke-width=".977" stroke-linecap="butt" stroke-linejoin="miter" stroke-opacity="1"/>
    <path d="M486.542 115.454l-37.5-21.418-13.164-.808-19.549-8.083 1.197 34.755 60.24 12.931z" id="path4622" fill="none" stroke="#000" stroke-width=".977" stroke-linecap="butt" stroke-linejoin="miter" stroke-opacity="1"/>
    <path d="M482.554 37.863l-34.708 56.981 39.27 20.897-7.978 12.528 21.368 4.966 4.787-10.103-2.394-24.246 29.522-33.947z" id="path4624" fill="none" stroke="#000" stroke-width=".977" stroke-linecap="butt" stroke-linejoin="miter" stroke-opacity="1"/>
    <path d="M606.232 81.752L532.42 64.94l-29.522 33.947 1.995 24.65-4.388 9.7-21.942-5.254-14.761 56.172 27.128 15.76-7.58 35.16 29.92 32.33 20.347 2.828 30.32-61.023 19.547 1.617z" id="path4626" fill="none" stroke="#000" stroke-width=".977" stroke-linecap="butt" stroke-linejoin="miter" stroke-opacity="1"/>
    <path d="M601.438 67.364c1.196.808 133.645 27.884 133.645 27.884l-3.99 29.5-130.054 99.414-17.554-13.336 22.747-129.074z" id="path4628" fill="none" stroke="#000" stroke-width=".977" stroke-linecap="butt" stroke-linejoin="miter" stroke-opacity="1"/>
    <path d="M732.689 258.108l-35.905 27.48 39.096 17.378 20.347-31.522z" id="path4630" fill="none" stroke="#000" stroke-width=".977" stroke-linecap="butt" stroke-linejoin="miter" stroke-opacity="1"/>
    <path d="M771.785 248.814l17.154-3.638 9.974 14.549-1.995 2.424-15.558-6.87-7.181.808z" id="path4632" fill="none" stroke="#000" stroke-width=".977" stroke-linecap="butt" stroke-linejoin="miter" stroke-opacity="1"/>
    <path d="M656.491 319.13l5.186 4.85-11.17 14.548-9.175-8.082z" id="path4634" fill="none" stroke="#000" stroke-width=".977" stroke-linecap="butt" stroke-linejoin="miter" stroke-opacity="1"/>
    <path d="M-14.04 594.345l21.543-3.637 13.563-9.699 9.575-1.213 2.256 3.288-14.623 10.857c-1.927 5.314-3.99 12.932-5.984 17.781L-.875 619.4z" id="path4636" fill="none" stroke="#000" stroke-width=".977" stroke-linecap="butt" stroke-linejoin="miter" stroke-opacity="1"/>
    <path d="M61.36 608.085l-11.969 13.74 7.181 12.527 19.947-6.06-1.994-13.337z" id="path4638" fill="none" stroke="#000" stroke-width=".977" stroke-linecap="butt" stroke-linejoin="miter" stroke-opacity="1"/>
    <path d="M157.106 571.31l-11.968 34.35-15.958 8.487 10.372 2.424 7.846-7.578 13.697-4.545 4.388-7.679 2.793-24.246-2.87-4.77z" id="path4640" fill="none" stroke="#000" stroke-width=".977" stroke-linecap="butt" stroke-linejoin="miter" stroke-opacity="1"/>
    <path d="M188.623 533.323l-3.913 9.243-15.635 6.518-3.59 10.102 5.186 3.638 18.75-12.932 3.254-11.696z" id="path4642" fill="none" stroke="#000" stroke-width=".977" stroke-linecap="butt" stroke-linejoin="miter" stroke-opacity="1"/>
    <path d="M-78.563 565.38l5.081-5.79 8.777 1.617 2.793 6.87-7.181 19.398z" id="path4644" fill="none" stroke="#000" stroke-width=".977" stroke-linecap="butt" stroke-linejoin="miter" stroke-opacity="1"/>
    <path d="M258.747 153.037c-1.196-.808-35.506 42.028-35.506 42.028l2.394 41.22 28.724-7.678 45.08 16.57 1.597 10.506 37.9-6.466 54.409-65.483 32.958-9.279 37.5 9.7 13.239-50.497-60.55-12.594-.163-35.919 19.548 6.466-32.021-47.844-31.71 17.862 3.491 14.626-45.48-27.076-97.74 13.336-12.367 63.85z" id="path4646" fill="none" stroke="#000" stroke-width=".977" stroke-linecap="butt" stroke-linejoin="miter" stroke-opacity="1"/>
    <path d="M423.51 582.211l1.596 2.021-.399 1.616-3.1-.783z" id="path4648" fill="none" stroke="#000" stroke-width=".977" stroke-linecap="butt" stroke-linejoin="miter" stroke-opacity="1"/>
    <path d="M290.519 539.3l2.139 2.5h3.59l-3.59 2.02-1.995-.809z" id="path4650" fill="none" stroke="#000" stroke-width=".977" stroke-linecap="butt" stroke-linejoin="miter" stroke-opacity="1"/>
    <path d="M-35.184 604.044l-5.186 4.85 5.984 8.486 8.777-6.062z" id="path4722" fill="none" stroke="#000" stroke-width=".977" stroke-linecap="butt" stroke-linejoin="miter" stroke-opacity="1"/>
    <path d="M-75.876 628.291l-5.985 5.657-5.584-.808-1.995 2.829 9.973 6.466 6.782-11.315z" id="path4724" fill="none" stroke="#000" stroke-width=".977" stroke-linecap="butt" stroke-linejoin="miter" stroke-opacity="1"/>
</svg>